<svg width="45" height="45" viewBox="0 0 45 45" fill="none" xmlns="http://www.w3.org/2000/svg">
<path d="M17.438 34.8755C17.8138 34.1263 18.0005 33.0013 18.0005 31.5005H27.0005C27.0005 33.0013 27.1873 34.1263 27.563 34.8755H29.2505C29.5489 34.8755 29.8351 34.9941 30.046 35.2051C30.257 35.416 30.3755 35.7022 30.3755 36.0005C30.3755 36.2989 30.257 36.5851 30.046 36.796C29.8351 37.007 29.5489 37.1255 29.2505 37.1255H15.7505C15.4522 37.1255 15.166 37.007 14.9551 36.796C14.7441 36.5851 14.6255 36.2989 14.6255 36.0005C14.6255 35.7022 14.7441 35.416 14.9551 35.2051C15.166 34.9941 15.4522 34.8755 15.7505 34.8755H17.438Z" fill="#69D200"/>
<path fill-rule="evenodd" clip-rule="evenodd" d="M35.9786 11.2505H8.9989C8.26765 11.2505 7.8694 11.426 7.6444 11.5768C7.39725 11.7489 7.20007 11.9833 7.0729 12.2563C6.88111 12.6526 6.77093 13.0834 6.7489 13.523V27.0005C6.7489 27.7318 6.9244 28.1301 7.07515 28.355C7.23265 28.5913 7.45765 28.778 7.75465 28.9265C8.13386 29.1102 8.54479 29.2195 8.96515 29.2483L9.0214 29.2505H35.9989C36.7301 29.2505 37.1284 29.075 37.3534 28.9243C37.6005 28.7522 37.7977 28.5178 37.9249 28.2448C38.1086 27.8656 38.2178 27.4547 38.2467 27.0343L38.2489 26.978V13.5005C38.2489 12.7693 38.0734 12.371 37.9226 12.146C37.7507 11.8988 37.5162 11.7016 37.2431 11.5745C36.8469 11.3828 36.4161 11.2726 35.9764 11.2505H35.9786ZM35.9989 9.00055H8.9989C4.4989 9.00055 4.4989 13.5005 4.4989 13.5005V27.0005C4.4989 31.5005 8.9989 31.5005 8.9989 31.5005H35.9989C40.4989 31.5005 40.4989 27.0005 40.4989 27.0005V13.5005C40.4989 9.00055 35.9989 9.00055 35.9989 9.00055Z" fill="#69D200"/>
</svg>
