<svg width="45" height="45" viewBox="0 0 45 45" fill="none" xmlns="http://www.w3.org/2000/svg">
<path fill-rule="evenodd" clip-rule="evenodd" d="M29.25 6.75027H15.75C15.1533 6.75027 14.581 6.98733 14.159 7.40928C13.7371 7.83124 13.5 8.40354 13.5 9.00027V33.7503C13.5 34.347 13.7371 34.9193 14.159 35.3413C14.581 35.7632 15.1533 36.0003 15.75 36.0003H29.25C29.8467 36.0003 30.419 35.7632 30.841 35.3413C31.2629 34.9193 31.5 34.347 31.5 33.7503V9.00027C31.5 8.40354 31.2629 7.83124 30.841 7.40928C30.419 6.98733 29.8467 6.75027 29.25 6.75027ZM15.75 4.50027C14.5565 4.50027 13.4119 4.97438 12.568 5.81829C11.7241 6.66221 11.25 7.8068 11.25 9.00027V33.7503C11.25 34.9437 11.7241 36.0883 12.568 36.9323C13.4119 37.7762 14.5565 38.2503 15.75 38.2503H29.25C30.4435 38.2503 31.5881 37.7762 32.432 36.9323C33.2759 36.0883 33.75 34.9437 33.75 33.7503V9.00027C33.75 7.8068 33.2759 6.66221 32.432 5.81829C31.5881 4.97438 30.4435 4.50027 29.25 4.50027H15.75Z" fill="#B3BDE0"/>
<path fill-rule="evenodd" clip-rule="evenodd" d="M22.5006 33.7497C23.0973 33.7497 23.6696 33.5127 24.0915 33.0907C24.5135 32.6688 24.7506 32.0965 24.7506 31.4997C24.7506 30.903 24.5135 30.3307 24.0915 29.9087C23.6696 29.4868 23.0973 29.2497 22.5006 29.2497C21.9038 29.2497 21.3315 29.4868 20.9096 29.9087C20.4876 30.3307 20.2505 30.903 20.2505 31.4997C20.2505 32.0965 20.4876 32.6688 20.9096 33.0907C21.3315 33.5127 21.9038 33.7497 22.5006 33.7497Z" fill="#B3BDE0"/>
</svg>
